<?xml version="1.0" encoding="UTF-8"?>
<svg id="Capa_1" data-name="Capa 1" xmlns="http://www.w3.org/2000/svg" version="1.1" viewBox="0 0 160 32">
  <defs>
    <style>
      .cls-1 {
        fill: #2054F8;
      }

      .cls-1, .cls-2 {
        stroke-width: 0px;
      }

      .cls-2 {
        fill: #101011;
      }
    </style>
  </defs>
  <g>
    <path class="cls-2" d="M59.66,12.67h10.5v2.56l-5.48.89c-1.57.24-2.88.65-3.94,1.23-1.05.58-1.83,1.3-2.34,2.16-.51.86-.76,1.84-.76,2.96,0,1.19.28,2.21.83,3.07.56.86,1.35,1.52,2.39,1.98,1.04.46,2.27.69,3.7.69,1.06,0,2.03-.14,2.9-.42.87-.28,1.66-.7,2.36-1.27.38-.31.74-.67,1.09-1.06l1.05,2.32h3.63V7.96h-14.33l-1.61,4.72ZM69.6,22.05c-.38.67-.9,1.19-1.58,1.58-.68.39-1.46.58-2.36.58-.68,0-1.25-.17-1.7-.51-.46-.34-.69-.81-.69-1.41,0-.65.21-1.15.62-1.51.41-.35,1-.6,1.78-.74l4.5-.65v.47c0,.8-.19,1.53-.56,2.19Z"/>
    <path class="cls-2" d="M104.52,8.46c-1.1-.63-2.36-.94-3.79-.94-1.62,0-3.04.39-4.24,1.16-.72.46-1.35,1.08-1.87,1.85-.41-.68-.97-1.27-1.7-1.76-1.25-.83-2.69-1.25-4.33-1.25-1.55,0-2.88.36-3.99,1.09-.74.48-1.47.97-1.96,1.68l-1.05-2.33h-3.63v19.81h5.44v-11.57c0-.77.14-1.44.42-2,.28-.56.68-.99,1.2-1.31.52-.31,1.13-.47,1.83-.47s1.34.16,1.85.47c.51.31.9.75,1.18,1.31.28.56.42,1.22.42,2v11.57h5.44v-11.57c0-.77.14-1.44.42-2,.28-.56.68-.99,1.2-1.31.52-.31,1.13-.47,1.83-.47s1.34.16,1.85.47c.51.31.9.75,1.18,1.31.28.56.42,1.22.42,2v11.57h5.44v-12.73c0-1.5-.31-2.81-.94-3.94-.63-1.12-1.49-2-2.59-2.63Z"/>
    <path class="cls-2" d="M126.26,8.9c-1.52-.92-3.23-1.38-5.11-1.38-1.45,0-2.74.27-3.86.82-.7.34-1.31.77-1.83,1.28V.95l-5.44,3.12v23.7h3.63l.98-2.45c.7.94,1.61,1.66,2.74,2.15,1.15.5,2.4.74,3.75.74,1.93,0,3.66-.46,5.19-1.38,1.52-.92,2.73-2.16,3.61-3.74.88-1.57,1.32-3.31,1.32-5.22s-.45-3.68-1.34-5.24c-.89-1.56-2.1-2.8-3.63-3.72ZM124.96,20.69c-.44.82-1.04,1.46-1.81,1.92-.77.46-1.67.69-2.68.69s-1.83-.23-2.59-.69c-.76-.46-1.35-1.1-1.78-1.92-.42-.82-.63-1.76-.63-2.83s.21-2.01.63-2.83c.42-.82,1.02-1.46,1.78-1.92.76-.46,1.63-.69,2.59-.69,1.02,0,1.91.24,2.68.71.77.47,1.38,1.11,1.81,1.92.44.81.65,1.75.65,2.81s-.22,2.01-.65,2.83Z"/>
    <path class="cls-2" d="M151.29,13.45c-.44-1.17-1.07-2.21-1.9-3.1-.83-.89-1.86-1.59-3.07-2.09-1.21-.5-2.6-.74-4.17-.74-1.89,0-3.58.45-5.08,1.34-1.5.89-2.69,2.12-3.57,3.66-.88,1.55-1.32,3.31-1.32,5.3s.42,3.65,1.27,5.22c.85,1.57,2.04,2.82,3.59,3.75,1.55.93,3.37,1.4,5.48,1.4,1.35,0,2.6-.2,3.74-.6,1.14-.4,2.12-.96,2.96-1.69.83-.73,1.44-1.57,1.83-2.54l-4.35-2.07c-.39.68-.92,1.21-1.61,1.6-.69.39-1.52.58-2.48.58-1.06,0-1.97-.24-2.72-.71-.75-.47-1.31-1.13-1.67-1.98-.19-.44-.31-.91-.38-1.41h13.87c.1-.27.16-.59.2-.96.04-.37.05-.76.05-1.14,0-1.38-.22-2.65-.65-3.83ZM139.72,12.56c.68-.46,1.49-.69,2.43-.69s1.78.24,2.45.71c.66.47,1.13,1.11,1.4,1.92.09.28.15.58.18.89h-8.21c.06-.28.14-.55.23-.8.34-.89.85-1.57,1.52-2.03Z"/>
    <polygon class="cls-2" points="52.67 7.96 48.64 20.51 44.61 7.96 38.59 7.96 45.37 27.76 51.9 27.76 58.68 7.96 52.67 7.96"/>
  </g>
  <path class="cls-1" d="M21.05,6.23c-4.37,0-13,8.62-13,13s8.62,10.25,13,10.25,13-5.88,13-10.25-8.62-13-13-13ZM21.05,25.48c-2.19,0-9-4.06-9-6.25s6.81-9,9-9,9,6.81,9,9-6.81,6.25-9,6.25Z"/>
</svg>